Coordinates
version=1
nRows=7
nColumns=60
inDegrees=yes

Units are S.I. units (second, meters, Newtons, ...)
If the header above contains a line with 'inDegrees', this indicates whether rotational values are in degrees (yes) or radians (no).

endheader
time	pelvis_tilt	pelvis_list	pelvis_rotation	pelvis_tx	pelvis_ty	pelvis_tz	hip_flexion_r	hip_adduction_r	hip_rotation_r	knee_angle_r_beta	knee_angle_r	ankle_angle_r	subtalar_angle_r	mtp_angle_r	hip_flexion_l	hip_adduction_l	hip_rotation_l	knee_angle_l_beta	knee_angle_l	ankle_angle_l	subtalar_angle_l	mtp_angle_l	L5_S1_Flex_Ext	L5_S1_Lat_Bending	L5_S1_axial_rotation	L4_L5_Flex_Ext	L4_L5_Lat_Bending	L4_L5_axial_rotation	L3_L4_Flex_Ext	L3_L4_Lat_Bending	L3_L4_axial_rotation	L2_L3_Flex_Ext	L2_L3_Lat_Bending	L2_L3_axial_rotation	L1_L2_Flex_Ext	L1_L2_Lat_Bending	L1_L2_axial_rotation	L1_T12_Flex_Ext	L1_T12_Lat_Bending	L1_T12_axial_rotation	Abs_r3	Abs_r2	Abs_r1	Abs_t1	Abs_t2	arm_flex_r	arm_add_r	arm_rot_r	elbow_flex_r	pro_sup_r	wrist_flex_r	wrist_dev_r	arm_flex_l	arm_add_l	arm_rot_l	elbow_flex_l	pro_sup_l	wrist_flex_l	wrist_dev_l
     45.26000000	      0.34085001	     -3.03362822	     92.51839819	      0.40285996	      0.91384110	      0.37750104	     22.59787991	     -5.08094213	      2.63483293	      0.34572576	    -19.80862706	      3.30242847	      0.00000000	      0.00000000	     22.56783760	     -5.20369978	      0.88954815	      0.30377502	    -17.40502664	      2.61426194	      0.00000000	      0.00000000	    -10.54666605	      0.17104105	      0.00698513	    -19.58621353	      0.22748460	      0.00742170	    -17.32711766	      0.41586921	      0.00742170	    -12.05378463	      0.41586921	      0.00611198	     -9.79363410	      0.34878691	      0.00567541	     -6.02636498	      0.26494259	      0.00523884	    -75.33378095	      1.93485056	      0.03884917	      0.00000000	      0.00000000	     52.85206092	    -24.64605399	     17.90175419	     61.95083820	     73.10008738	      5.56014910	      4.13660603	     58.79876234	    -24.23919938	     29.11782350	     56.19353667	     60.67965082	      7.00493415	      5.58047207
     45.27000000	      0.29701887	     -3.36805577	     92.56081544	      0.40272977	      0.91276394	      0.37928771	     23.29869826	     -5.17414696	      2.48413550	      0.35272641	    -20.20973444	      3.31097282	      0.00000000	      0.00000000	     23.18894537	     -5.11587557	      0.89798716	      0.30797147	    -17.64546562	      2.54927050	      0.00000000	      0.00000000	    -10.61764490	      0.17023085	     -0.00459985	    -19.71802834	      0.22640702	     -0.00488734	    -17.44372880	      0.41389928	     -0.00488734	    -12.13490636	      0.41389928	     -0.00402487	     -9.85954505	      0.34713474	     -0.00373738	     -6.06692230	      0.26368758	     -0.00344988	    -75.84077575	      1.92568537	     -0.02558297	      0.00000000	      0.00000000	     54.59464104	    -24.15042812	     18.22773985	     60.27287668	     73.16278004	      5.55044401	      4.13652020	     60.73955738	    -23.77502661	     30.02228434	     54.27600998	     60.68975712	      7.08342567	      5.64720887
     45.28000000	      0.26785221	     -3.67372077	     92.60211270	      0.40249118	      0.91177243	      0.38099979	     23.90497318	     -5.25400428	      2.45502703	      0.35775476	    -20.49783782	      3.29660297	      0.00000000	      0.00000000	     23.75443145	     -5.02219000	      1.01878537	      0.31144212	    -17.84431930	      2.48744580	      0.00000000	      0.00000000	    -10.70593035	      0.17511830	     -0.00809827	    -19.88198325	      0.23290734	     -0.00860441	    -17.58877297	      0.42578263	     -0.00860441	    -12.23580779	      0.42578263	     -0.00708598	     -9.94152692	      0.35710123	     -0.00657984	     -6.11736860	      0.27125824	     -0.00607370	    -76.47138988	      1.98097321	     -0.04504012	      0.00000000	      0.00000000	     56.19631662	    -23.80000156	     18.38338139	     59.11651114	     73.25592495	      5.55007672	      3.99238484	     62.57388004	    -23.38082477	     30.83094433	     52.77836152	     60.64352793	      7.21498303	      5.59540329
     45.29000000	      0.25448655	     -3.98509838	     92.71303324	      0.40214933	      0.91078528	      0.38260513	     24.48589679	     -5.34436466	      2.37977671	      0.36269093	    -20.78065969	      3.28037467	      0.00000000	      0.00000000	     24.33046124	     -4.92207865	      1.13017614	      0.31478545	    -18.03587779	      2.44462290	      0.00000000	      0.00000000	    -10.78846867	      0.18577466	     -0.01320431	    -20.03526517	      0.24708030	     -0.01402958	    -17.72437518	      0.45169251	     -0.01402958	    -12.33014084	      0.45169251	     -0.01155377	    -10.01817201	      0.37883169	     -0.01072850	     -6.16453100	      0.28776495	     -0.00990323	    -77.06095287	      2.10152014	     -0.07343840	      0.00000000	      0.00000000	     57.73178360	    -23.47240095	     18.50175669	     57.92365073	     73.40299101	      5.55740594	      3.70686664	     64.42501148	    -22.94894870	     31.74922191	     51.17118310	     60.50014633	      7.41765044	      5.39917323
     45.30000000	      0.25996675	     -4.23993036	     92.79234047	      0.40175599	      0.90988307	      0.38412468	     25.00747233	     -5.38726126	      2.50218321	      0.36790612	    -21.07946798	      3.17990632	      0.00000000	      0.00000000	     24.85961034	     -4.83123603	      1.39409878	      0.31937476	    -18.29882611	      2.32466697	      0.00000000	      0.00000000	    -10.89944149	      0.19722218	     -0.02535843	    -20.24135279	      0.26230550	     -0.02694334	    -17.90669242	      0.47952601	     -0.02694334	    -12.45697168	      0.47952601	     -0.02218863	    -10.12122137	      0.40217547	     -0.02060373	     -6.22794087	      0.30549716	     -0.01901883	    -77.85362062	      2.23101676	     -0.14103600	      0.00000000	      0.00000000	     59.12405395	    -23.20232028	     18.35876338	     57.46213999	     73.46301323	      5.55081658	      3.56127285	     65.90617119	    -22.70622680	     31.93614045	     50.45432238	     60.41792762	      7.49116081	      5.26904855
     45.31000000	      0.28520323	     -4.63040149	     92.87008484	      0.40143808	      0.90875988	      0.38565505	     25.67919393	     -5.43201487	      2.37865650	      0.37282479	    -21.36128722	      3.23041431	      0.00000000	      0.00000000	     25.49193567	     -4.77033451	      1.54085426	      0.32196775	    -18.44739334	      2.34208249	      0.00000000	      0.00000000	    -10.95119316	      0.21004397	     -0.00634324	    -20.33746083	      0.27935848	     -0.00673969	    -17.99171525	      0.51070090	     -0.00673969	    -12.51611867	      0.51070090	     -0.00555034	    -10.16927797	      0.42832166	     -0.00515388	     -6.25751177	      0.32535811	     -0.00475743	    -78.22327766	      2.37605937	     -0.03527921	      0.00000000	      0.00000000	     60.60076389	    -22.87087900	     18.43220728	     55.80998176	     74.47659190	      6.15978449	      0.98727917	     67.93255610	    -22.20499012	     33.82638407	     48.16803643	     58.47725777	      9.03010042	      1.86552669
     45.32000000	      0.26895418	     -5.01978399	     92.96747636	      0.40105454	      0.90759497	      0.38708914	     26.34176393	     -5.53655544	      2.25651066	      0.37782849	    -21.64797784	      3.16172131	      0.00000000	      0.00000000	     26.19545427	     -4.65174388	      1.67835860	      0.32761340	    -18.77086538	      2.27081928	      0.00000000	      0.00000000	    -11.02274094	      0.21659256	     -0.02875356	    -20.47033221	      0.28806811	     -0.03055065	    -18.10926110	      0.52662316	     -0.03055065	    -12.59789063	      0.52662316	     -0.02515936	    -10.23571724	      0.44167555	     -0.02336227	     -6.29839418	      0.33550188	     -0.02156517	    -78.73433629	      2.45013839	     -0.15991866	      0.00000000	      0.00000000	     62.04151834	    -22.45727478	     18.38398367	     54.86019690	     74.51649483	      6.19596490	      1.03001148	     69.42807442	    -21.90036577	     34.25911160	     47.08247104	     58.50105260	      9.03809852	      1.84345045
